<?xml version="1.0" standalone="no"?>
<!DOCTYPE svg PUBLIC "-//W3C//DTD SVG 20010904//EN"
 "http://www.w3.org/TR/2001/REC-SVG-20010904/DTD/svg10.dtd">
<svg version="1.0" xmlns="http://www.w3.org/2000/svg"
 width="256.000000pt" height="256.000000pt" viewBox="0 0 256.000000 256.000000"
 preserveAspectRatio="xMidYMid meet">
<metadata>
Created by potrace 1.11, written by Peter Selinger 2001-2013
</metadata>
<g transform="translate(0.000000,256.000000) scale(0.100000,-0.100000)"
fill="#000000" stroke="none">
<path d="M0 1280 l0 -1280 1280 0 1280 0 0 1280 0 1280 -1280 0 -1280 0 0
-1280z m1338 485 c-13 -8 -111 -46 -113 -43 -12 15 -25 51 -20 56 3 4 30 16
58 27 l52 21 13 -29 c7 -17 11 -31 10 -32z m44 -104 c16 -41 27 -74 26 -76 -7
-4 -107 -45 -111 -45 -3 0 -10 14 -16 30 -12 36 -27 37 -72 7 -62 -42 -100
-122 -85 -182 6 -24 8 -25 29 -10 27 19 66 19 94 0 20 -14 30 -12 134 30 62
24 114 43 116 42 1 -2 4 -14 5 -26 3 -21 -9 -28 -109 -69 -81 -33 -113 -51
-113 -63 0 -9 -7 -22 -15 -29 -28 -23 4 -30 148 -30 l137 0 0 -30 0 -30 -245
0 -245 0 0 30 c0 29 2 30 45 30 l46 0 -21 23 c-111 117 -67 319 83 382 32 13
37 18 26 31 -6 8 -10 16 -8 17 12 10 105 45 113 43 5 -1 22 -35 38 -75z m45
-117 c3 -8 1 -26 -5 -39 -20 -43 -112 -43 -112 0 0 7 21 22 48 33 59 25 61 26
69 6z m-597 -69 l0 -35 -290 0 -290 0 0 28 c0 16 3 32 7 35 3 4 134 7 290 7
l283 0 0 -35z m1478 -2 l3 -33 -290 0 -291 0 0 35 0 35 288 -2 287 -3 3 -32z
m-814 -469 c20 -8 21 -38 2 -53 -30 -25 -67 16 -40 44 18 17 17 17 38 9z m226
-118 l0 -104 -52 0 c-68 0 -88 17 -88 73 0 51 26 80 65 73 23 -5 25 -2 25 28
0 30 3 34 25 34 l25 0 0 -104z m-930 64 c0 -13 -7 -20 -20 -20 -17 0 -20 -7
-20 -50 0 -43 3 -50 20 -50 15 0 20 -7 20 -25 0 -24 -2 -25 -70 -25 -68 0 -70
1 -70 25 0 20 5 25 25 25 23 0 25 3 25 50 0 47 -2 50 -25 50 -18 0 -25 5 -25
20 0 18 7 20 70 20 63 0 70 -2 70 -20z m180 -30 c21 -13 -2 -35 -37 -35 -33 0
-52 -27 -33 -50 9 -11 22 -14 40 -10 20 4 29 2 34 -11 9 -22 -10 -34 -55 -34
-71 0 -105 76 -57 127 23 24 79 31 108 13z m179 -16 c12 -15 21 -37 21 -49 0
-38 -37 -75 -76 -75 -45 0 -74 29 -74 75 0 72 86 104 129 49z m120 -29 c8 -27
15 -45 17 -40 2 6 8 29 14 53 9 35 15 42 35 42 30 0 30 1 1 -80 -21 -58 -27
-65 -53 -68 -28 -3 -31 0 -53 60 -12 35 -25 69 -28 76 -3 10 3 13 24 10 25 -3
30 -10 43 -53z m241 -20 l0 -75 -30 0 c-30 0 -30 1 -30 55 0 52 -1 55 -25 55
-18 0 -25 5 -25 20 0 18 7 20 55 20 l55 0 0 -75z m381 64 c32 -17 6 -39 -39
-33 l-37 4 35 -11 c62 -19 76 -45 43 -81 -30 -33 -151 -17 -123 17 7 8 26 12
53 9 l42 -4 -42 16 c-49 18 -63 46 -37 75 19 21 73 26 105 8z"/>
<path d="M1177 1326 c-9 -22 19 -42 37 -26 19 15 10 40 -14 40 -10 0 -20 -6
-23 -14z"/>
<path d="M1634 876 c-9 -23 0 -51 16 -51 10 0 15 10 15 29 0 32 -21 47 -31 22z"/>
<path d="M1074 876 c-9 -24 0 -51 19 -54 14 -3 17 4 17 32 0 26 -4 36 -15 36
-9 0 -18 -6 -21 -14z"/>
</g>
</svg>
